/* XPM */
static char *_41baf88598c421693c324062cbc609bKmFvt1vFhtxiksVt[] = {
/* columns rows colors chars-per-pixel */
"32 32 93 2 ",
"   c #6F5044",
".  c #6B5D4F",
"X  c #735447",
"o  c #7D5546",
"O  c #755649",
"+  c #7C5748",
"@  c #75594B",
"#  c #7B5D4E",
"$  c #7C5F50",
"%  c #7F604E",
"&  c #776254",
"*  c #7D6152",
"=  c #756659",
"-  c #7E6758",
";  c #766A5B",
":  c #7C6C5D",
">  c #7C6E61",
",  c #7D7364",
"<  c #7F7768",
"1  c #7F7869",
"2  c #805847",
"3  c #845C4C",
"4  c #895E4E",
"5  c #845F51",
"6  c #895F50",
"7  c #82614F",
"8  c #8A614F",
"9  c #836453",
"0  c #8C6352",
"q  c #876957",
"w  c #8D6955",
"e  c #846758",
"r  c #8F6658",
"t  c #856A5A",
"y  c #8B6B5B",
"u  c #916655",
"i  c #906854",
"p  c #936954",
"a  c #926B55",
"s  c #936D57",
"d  c #956D57",
"f  c #956E57",
"g  c #916858",
"h  c #916959",
"j  c #926858",
"k  c #936B5A",
"l  c #956B5A",
"z  c #956D5A",
"x  c #986E58",
"c  c #96705F",
"v  c #97745E",
"b  c #99705A",
"n  c #98715B",
"m  c #9A715A",
"M  c #856E60",
"N  c #837364",
"B  c #867565",
"V  c #8A7361",
"C  c #897462",
"Z  c #8C7666",
"A  c #817866",
"S  c #817669",
"D  c #8B7768",
"F  c #83796B",
"G  c #877868",
"H  c #827B6C",
"J  c #847B6C",
"K  c #847B6D",
"L  c #847C6D",
"P  c #867C6E",
"I  c #877D6E",
"U  c #887969",
"Y  c #8A796A",
"T  c #897D6D",
"R  c #987160",
"E  c #987666",
"W  c #947B67",
"Q  c #917968",
"!  c #957D6C",
"~  c #877E70",
"^  c #897F71",
"/  c #8E7F72",
"(  c #888172",
")  c #8B8273",
"_  c #8A8274",
"`  c #8A8374",
"'  c #8C8576",
"]  c #8E8576",
"[  c #8D8677",
"{  c #8F8878",
"}  c #918576",
"|  c #938979",
" . c #988B7B",
/* pixels */
"[ E R c R y h y 0 e h r h 0 6 r G F & & @ $ - $ $ - & $ $ 9 $ > ",
"} 0 z c z 0 0 4 6 u u r u u r 6 9 ~ $ O X # 5 $ O O $ 5 $ @ $ $ ",
"I r h h h 6 9 6 0 y 0 0 0 4 4 6 t ~ 5 @   $ # @ O X 5 9 + X $ $ ",
"F 0 h 0 l 6 r 0 0 h 0 4 3 e r 6 e ~ $ # X # + O O $ 9 5 $ O X $ ",
"( z h 0 r 0 4 5 y ! 9 e V J T T ~ < O # @ # O @   9 % 3 e $ # $ ",
"B Q ! C - V t - J [ T I T > ; , / > - F ; @ : = . H C : < , , J ",
"w a b d a a 0 d w ( e # e # * 9 5 # $ # # # O @ # I 7 8 a 0 0 l ",
"d s s a d w a s w ( e # 7 * 9 * e # # * $ #   @ % < 8 8 a 8 a z ",
"b d d s z x z x n ( # % 9 7 9 # - % % % % @ @ O & 1 8 i a i i d ",
"b s s d a z x x v [ t e * 9 9 * % @ % % @ # @ @ % F 0 w 8 w f b ",
"( 1 , I I ^ J [ I | ( F ( T ( ( ( H ( < A G H < 1 H H ( ( [ { { ",
"e * e t e e y y y y t y y ) 7 # 7 9 7 7 7 % + 7 9 % 7 9 7 { C q ",
"e * e e e e y e e y q e q Y q 9 9 7 9 q q 7 7 7 7 7 # 9 7 ( C q ",
"t e * * * e e 9 e y e e 9 Y 0 q 9 9 q 7 7 9 7 # % 7 7 7 7 J N 9 ",
"e e * $ * e e e e y * e e T 7 9 9 q q 7 9 0 9 7 9 % 7 % 7 B B q ",
"> ; , S F [ T T J J J ( F I F B ( : = : Y H ( 9 9 % q 9 9 F ' , ",
"^ / M + 0 h h [ Y Z Z } W y 9 q C A T : y 8 0 9 S 4 u r 4 r 0 } ",
"l g 5 u h u u T l p i i 0 8 3 3 8 0 0 0 4 4 0 3 Y u 0 u 6 6 4 g ",
"u u 6 u g u 4 N Z i i 0 8 3 3 3 0 3 8 7 u 2 4 4 J 0 0 4 4 u 6 u ",
"u l u 6 u u 0 I y 8 3 8 3 o 3 3 8 8 8 8 4 3 3 4 Z u u 0 6 6 u 6 ",
"g u 4 6 r y g ^ 0 4 o o 3 + 3 3 7 4 3 4 0 4 2 e ~ 0 r 5 0 6 0 6 ",
"B P M F T ^ _ T ( A < : < < I I t q - t t - : M M t e t e M t S ",
"0 a 0 0 a a a i 8 8 8 7 3 3 4 < 3 3 3 4 3 4 o o 5 5 6 6 5 + 5 * ",
"w l h h u u u 7 3 8 8 3 4 3 0 J 4 3 + + 3 5 + + 3 6 u 6 4 3 3 @ ",
"h z 0 i a u 4 4 3 4 0 o 3 4 3 N 3 3 3 3 3 4 8 o 3 3 0 0 4 + 3 * ",
"a l 9 0 u u 4 4 3 7 0 3 4 0 0 ( 0 9 + 3 3 8 3 o 3 2 4 3 4 + 5 9 ",
"^ _ F I I T ( J ( 1 ( ( , , , 1 N , < F < ; , 1 M P J S P N P N ",
"a 0 0 0 7 0 z q P @ # @ @ * # # $ # @ @ # @ @ @ , 4 0 4 o 4 3 3 ",
"i 0 0 0 0 8 u 0 F # * @ 9 & * $ @ $ O @ @ # # @ : 4 8 8 4 4 3 8 ",
"0 w 0 0 0 0 w w S * * * 7 * 9 * $ @ . O @ @ @ @ : 4 w 8 4 8 8 7 ",
"x x a 0 p 0 u a B * 9 $ q 9 9 e $ O @ @ @ # # @ A 0 0 u 8 3 8 8 ",
"|  .| | | ( T ( F T ( J ( T P N t S S N , , N ; N Y F N B G F Y "
};
