/* XPM */
static char *_041d68df32041379971d2acbc31591d05vijjY8xmsMKgAm[] = {
/* columns rows colors chars-per-pixel */
"22 32 109 2 ",
"   c #010101",
".  c #070615",
"X  c #6C372B",
"o  c #663F2F",
"O  c #693A2E",
"+  c #653F30",
"@  c #6B3C30",
"#  c #723730",
"$  c #7D3D3E",
"%  c #63422F",
"&  c #654332",
"*  c #7F3F40",
"=  c #5F544F",
"-  c #564E54",
";  c #5C4B52",
":  c #545155",
">  c #5D5754",
",  c #5C5952",
"<  c #535258",
"1  c #6F4847",
"2  c #6B4D4B",
"3  c #754346",
"4  c #7A4042",
"5  c #744749",
"6  c #704A49",
"7  c #63534E",
"8  c #605752",
"9  c #7C6853",
"0  c #88373F",
"q  c #823C3E",
"w  c #9D583F",
"e  c #813E40",
"r  c #A85242",
"t  c #A45F46",
"y  c #AA5943",
"u  c #856B47",
"i  c #9E6549",
"p  c #966F4E",
"a  c #9A6A4B",
"s  c #98724F",
"d  c #8F7A56",
"f  c #A16247",
"g  c #A06348",
"h  c #BE6544",
"j  c #BA6A46",
"k  c #BE6548",
"l  c #B76E4B",
"z  c #BB6C4C",
"x  c #B5744E",
"c  c #B9724E",
"v  c #B3794F",
"b  c #AF6F5D",
"n  c #AF7E52",
"m  c #B57651",
"M  c #B97250",
"N  c #B27A51",
"B  c #B17C50",
"V  c #B17D52",
"C  c #B17D54",
"Z  c #B07F54",
"A  c #B17E55",
"S  c #B07F55",
"D  c #C06347",
"F  c #C06549",
"G  c #C26548",
"H  c #9E975B",
"J  c #9E9B5D",
"K  c #A58657",
"L  c #AB8352",
"P  c #AD8152",
"I  c #A98451",
"U  c #AA8653",
"Y  c #AD8453",
"T  c #AC8354",
"R  c #AA8654",
"E  c #AD8554",
"W  c #A78855",
"Q  c #A48D57",
"!  c #AB8A54",
"~  c #A98956",
"^  c #AC8857",
"/  c #A88D55",
"(  c #A98C56",
")  c #A58D58",
"_  c #A58E5A",
"`  c #AA8A58",
"'  c #A98C58",
"]  c #B08052",
"[  c #B18053",
"{  c #A49056",
"}  c #A6915B",
"|  c #A5925A",
" . c #A2945B",
".. c #A1995E",
"X. c #97A45E",
"o. c #9AA25E",
"O. c #869462",
"+. c #9D9E61",
"@. c #A19661",
"#. c #A09568",
"$. c #AE8479",
"%. c #B08275",
"&. c #96A664",
"*. c #9AA362",
"=. c #9AA569",
"-. c #979987",
";. c #9AA486",
":. c #95AC9D",
">. c #8AC8DC",
/* pixels */
"  & & & & & & % & & o & % o + @ @ + O X # X ",
"  V V m N N m m m m c M M l z z z F F F D h ",
"  n V 4 * e 4 $ 4 4 4 e e q $ q 0 e q r h h ",
"  Z Z 3 n Z n N m m m m M M M l z z F y k h ",
"  n n 3 n Z n n N N m m m x c c z z z b k h ",
"  T L 3 n n n Z N N N m m c v c z z z %.k h ",
"  E L 5 K n Z Z Z N V m m v v x M l z $.z h ",
"  R I 5 n n n Z [ V V m v v m m c l z $.k z ",
"  ~ ~ 1 U Y Y P P V P V n m m m v c c w k z ",
"  ` ` 1 ~ U Y L P P Z [ n N m m x c c t z j ",
"  ' ' 1 ~ ~ ~ U U P P n T N N v v x x f z l ",
"  ) ) 2 ( ~ ~ R U R Y P n n N Z v x x f c l ",
"  } ) 2 ' ) Q ~ ~ R U L P n V N v v m f l x ",
"  }  .2 ) _ ' ' ` ~ R ~ E P [ Z V m v f c l ",
"  J  .2  .| Q ) Q ~ ~ R R R P n n V N g v x ",
"  .. .7  .#.@.~ ) R R Q R E P P n V v i m x ",
"  ..| 7  .>.:.( ' ) ( ~ ~ ~ U P P V [ i v x ",
"  H ..7 .. . .| | _ ) ` ~ ~ E Y n V n a v v ",
"  J H 7 H  . . .| | ) ) Q ~ ^ Y L P n a V v ",
"  J J 7 H H .. .} |  .) Q ( ~ ~ L L V a v m ",
"  +.J 8 J H .. . .| | { Q ( ` ~ U Y L a V N ",
"  *.+.7 J H  ..... . .| | ) ' ~ ~ U L p V v ",
"  J *.= o.J J H ..H  . .| ) Q Q ~ R R p P [ ",
"  *.*.8 J J J  .H J  . .| | ) _ Q U R p L [ ",
"  *.+.> J J *...H H H  .H | ) _ ` R Q p P P ",
"  *.*.> *.+.*.........H  . .} ) ) ) R s R P ",
"  *.&., *.+.+.J +.J .... .H | | _ ) _ -.E E ",
"  *.*.> o.o.*.*.J +.J ..H  . . .} _ ) ;.~ E ",
"  *.&., X.*.*.*.o.o...J ..H H H } | ) ;.~ ~ ",
"  &.&., X.X.*.+.@.o.o.J J H H  . .| ' u ' ~ ",
"  &.&., =.*.*.X.o.J J J J H H .. .| } d Q ) ",
". O.O.: < : : : - : : - : ; ; ; ; ; ; 9 d d "
};
