/* XPM */
static char *playr_down1704892933[] = {
/* columns rows colors chars-per-pixel */
"32 32 204 2 ",
"   c None",
".  c #1C1A15",
"X  c #1A1A19",
"o  c #171A19",
"O  c #1C1D0F",
"+  c #251C16",
"@  c #2A1D18",
"#  c #3D1E19",
"$  c #1E2215",
"%  c #1E291C",
"&  c #1F301E",
"*  c #232314",
"=  c #2C2314",
"-  c #23221B",
";  c #2B241A",
":  c #2C2B1C",
">  c #2A2A17",
",  c #342C1C",
"<  c #3B2B1B",
"1  c #362919",
"2  c #2D391C",
"3  c #2A3616",
"4  c #35331A",
"5  c #38361A",
"6  c #271C21",
"7  c #3E1F2C",
"8  c #1F3121",
"9  c #242323",
"0  c #2E2A23",
"q  c #232E2A",
"w  c #332D20",
"e  c #2B352A",
"r  c #3C3224",
"t  c #35372C",
"y  c #353434",
"u  c #393736",
"i  c #3D3935",
"p  c #4D2E1A",
"a  c #462A19",
"s  c #4B321D",
"d  c #583A1C",
"f  c #6C341A",
"g  c #472A28",
"h  c #582C29",
"j  c #433523",
"k  c #453C24",
"l  c #483928",
"z  c #593928",
"x  c #453833",
"c  c #412A30",
"v  c #692424",
"b  c #67383B",
"n  c #712A28",
"m  c #3E551F",
"M  c #34412B",
"N  c #394325",
"B  c #2D4432",
"V  c #334930",
"C  c #36553D",
"Z  c #2D4B2C",
"A  c #43581E",
"S  c #484329",
"D  c #584427",
"F  c #554937",
"G  c #435037",
"H  c #654629",
"J  c #6B4729",
"K  c #734529",
"L  c #79532B",
"P  c #664D34",
"I  c #7A5437",
"U  c #7C4F32",
"Y  c #4B6523",
"T  c #567525",
"R  c #637D2B",
"E  c #7D7E27",
"W  c #683B55",
"Q  c #6A3B4E",
"!  c #3B5B4A",
"~  c #3D6447",
"^  c #4C424A",
"/  c #474C49",
"(  c #465E4A",
")  c #555452",
"_  c #6F504A",
"`  c #40684B",
"'  c #467447",
"]  c #446D53",
"[  c #457454",
"{  c #497C56",
"}  c #687357",
"|  c #7F4060",
" . c #5B7D62",
".. c #6A6867",
"X. c #747674",
"o. c #872A2A",
"O. c #A13021",
"+. c #895427",
"@. c #895A36",
"#. c #995D33",
"$. c #915D2D",
"%. c #AE5829",
"&. c #BC4E2B",
"*. c #887B27",
"=. c #986439",
"-. c #A56739",
";. c #B16E2F",
":. c #D57831",
">. c #D87830",
",. c #813F66",
"<. c #946452",
"1. c #906E4F",
"2. c #B2774C",
"3. c #A67457",
"4. c #A56F51",
"5. c #8D456D",
"6. c #864768",
"7. c #984C76",
"8. c #964B7A",
"9. c #984B79",
"0. c #8D5072",
"q. c #9E7D62",
"w. c #67882A",
"e. c #768227",
"r. c #68932C",
"t. c #7CAB34",
"y. c #73A231",
"u. c #7EB035",
"i. c #598C59",
"p. c #51955C",
"a. c #779555",
"s. c #6EB35E",
"d. c #4D8561",
"f. c #529264",
"g. c #5EA66B",
"h. c #61B26D",
"j. c #65AF6F",
"k. c #6BC877",
"l. c #879D30",
"z. c #8D9830",
"x. c #858E4E",
"c. c #BD855C",
"v. c #B6BA54",
"b. c #B78968",
"n. c #B48E75",
"m. c #8AAE69",
"M. c #CA8B59",
"N. c #C68C5B",
"B. c #D9945D",
"V. c #C9B650",
"C. c #DA9765",
"Z. c #C7956A",
"A. c #E39D65",
"S. c #C9CC6D",
"D. c #262AAA",
"F. c #232BB1",
"G. c #2B31BC",
"H. c #3133B8",
"J. c #5254BD",
"K. c #6667B9",
"L. c #2D31C2",
"P. c #5C5FD7",
"I. c #6567CA",
"U. c #5D62E7",
"Y. c #6669E9",
"T. c #787DF1",
"R. c #6F73F2",
"E. c #9E5A81",
"W. c #AA5985",
"Q. c #B3568D",
"!. c #B85D95",
"~. c #A14781",
"^. c #C15C9A",
"/. c #DD64A9",
"(. c #DA68AC",
"). c #8B8888",
"_. c #9C9A98",
"`. c #A79D98",
"'. c #B6A393",
"]. c #A69FA4",
"[. c #9FA0A3",
"{. c #A3A1A3",
"}. c #A9A2A6",
"|. c #B6B6B4",
" X c #B8B5B6",
".X c #A9A6BE",
"XX c #CCB39B",
"oX c #E3BEA2",
"OX c #EAC7A7",
"+X c #9D9FCD",
"@X c #BDBEDE",
"#X c #BABCD9",
"$X c #AAAAEA",
"%X c #BBB9E5",
"&X c #C0B9E5",
"*X c #C2C1C6",
"=X c #CACBDC",
"-X c #DFDCDF",
";X c #E3DBDB",
":X c #E4E0DD",
">X c #DDDEF1",
",X c #E4E0E1",
"<X c #E7E4F4",
"1X c #F6EDE5",
/* pixels */
"                                                                ",
"                                                                ",
"                          w $ $ * * 4                           ",
"                        5 A Y T w.T Y 3 ; 5                     ",
"                    F 5 m T r.y.u.t.r.T Y S >                   ",
"                    w 4 e.w.r.y.u.t.l.z.R m N N                 ",
"            l j F c @ p ;.*.E e.z.l.*.;.d 3 R : ; j             ",
"          < 3.1.r Q.W @ # %.>.>.:.:.-.a @ 3 T : I n.r           ",
"          = 2.4.0 ^.!.Q.W._ p p g p b W.W.0.3 * I b.r 2         ",
"          = =.2.<.,.Q./.(.~.5.5.5.5.9./.(.7.+ _ 4.4., 2         ",
"          = +.-.<.| ,.9.9.9.7.7.7.7.8.8.7.6.Q <.-.$.= 2         ",
"          4 J J h 7.Q g ^ ^ x 1 < x ^ ^ l b W.z H L 4 N         ",
"            s d @.g K q.;X:XXX=.#.`.,X,Xn.@.g U H <             ",
"              S < I #.b.<Xn.1.M.B.1...1XZ.=.@.d k F             ",
"            k G ' D +.2.oX) L C.A._ x oXN.$.z = 1 j             ",
"            , Z i.V D #.N.I =.A.A.4.@.M.=.J < 1 < < k           ",
"            : . & [ B a @.c.C.B.A.Z.N.=.S , J L L F * 4         ",
"          - 9 i / q ! ` = < K -.-.H > - C ` * H z = $ 4         ",
"        M y }._.e - q q + `.`.z 5 V { g.f.~ $ : P 1.: 2         ",
"        M u *X-X}.{.{.[.{.,X Xe ' p.h.g.f.[ C 9 s F N           ",
"        M y *X<X&X&X%X%X#X<X|.V h.k.h.d.d.i.a.t ; <             ",
"        M u *X$XD.H.H.G.D.@X|.V s.j.d.[ ' a.S.x w               ",
"          u *X$XL.Y.R.U.F.@X XS v.m.] & % B d.w w               ",
"          u *X$XL.Y.T.Y.F.%X XS V.x.M ` ~ ! y n h <             ",
"          u *X$XG.Y.T.Y.F.#X XM a.} ~ { ~ l v &.K 1             ",
"          G _.+XI.P.Y.P.I..X).q C ~ ~ ( j v O.%.K j             ",
"            l X.=XJ.J.K.=X..+ o . . X + v o.o.# r               ",
"              F ) =X>X#X/ 9 o X o . X . @ @ + + j               ",
"                  ....) + X X X X o X X X . + S                 ",
"                  l   t X X X X X . X . : r k                   ",
"                        w , 0 0 0 w ; ,                         ",
"                                                                "
};
