/* XPM */
static char *_3213792a5ff45b2cd093941dff1ddc0tHnwQpgiU0yzCIph[] = {
/* columns rows colors chars-per-pixel */
"29 32 181 2 ",
"   c None",
".  c #060A1E",
"X  c #080B1E",
"o  c #050C29",
"O  c #081127",
"+  c #051434",
"@  c #0A193A",
"#  c #151D39",
"$  c #151726",
"%  c #0C0D40",
"&  c #071940",
"*  c #1B1F43",
"=  c #171543",
"-  c #122343",
";  c #1A2141",
":  c #16224E",
">  c #122E59",
",  c #112953",
"<  c #18315A",
"1  c #2E234F",
"2  c #313555",
"3  c #1C0E6D",
"4  c #2C0D79",
"5  c #34117C",
"6  c #1F3868",
"7  c #3E2765",
"8  c #2B3C6D",
"9  c #2E317F",
"0  c #3A377D",
"q  c #423359",
"w  c #39435A",
"e  c #32426E",
"r  c #38477D",
"t  c #32527A",
"y  c #53595F",
"u  c #4A556A",
"i  c #535D6F",
"p  c #524A7C",
"a  c #556975",
"s  c #626A7D",
"d  c #66717D",
"f  c #2F0A87",
"g  c #3D098B",
"h  c #3D0A9E",
"j  c #331591",
"k  c #312986",
"l  c #37308F",
"z  c #4E168D",
"x  c #441195",
"c  c #4B3D80",
"v  c #44369C",
"b  c #58378B",
"n  c #480AA2",
"m  c #5004A9",
"M  c #5609B2",
"N  c #5319B8",
"B  c #490ABA",
"V  c #7A4F93",
"C  c #78549A",
"Z  c #697486",
"A  c #7B7B8E",
"S  c #766A9E",
"D  c #5E45A3",
"F  c #714AB3",
"G  c #6E18CD",
"H  c #7B2FC6",
"J  c #7705ED",
"K  c #7807F7",
"L  c #712FE5",
"P  c #6F32EA",
"I  c #9D3EB6",
"U  c #985BA7",
"Y  c #AB58B8",
"T  c #AD64B9",
"R  c #9E3ECA",
"E  c #B428CE",
"W  c #A439C4",
"Q  c #B838D9",
"!  c #8B0AEF",
"~  c #801EE9",
"^  c #820AFB",
"/  c #8605F7",
"(  c #891EF1",
")  c #981EF5",
"_  c #AD1CEE",
"`  c #942FE7",
"'  c #8C37F3",
"]  c #A824F4",
"[  c #B421F8",
"{  c #A33AF1",
"}  c #B334F0",
"|  c #A728EA",
" . c #CD3BDD",
".. c #C22BE8",
"X. c #C63BE1",
"o. c #C633F7",
"O. c #9A77C7",
"+. c #A266C0",
"@. c #B86DC4",
"#. c #BA71C7",
"$. c #BD73CC",
"%. c #9B44F9",
"&. c #BD47F1",
"*. c #A95DF8",
"=. c #AF66ED",
"-. c #B779FB",
";. c #B766F5",
":. c #C75CDC",
">. c #C375CE",
",. c #C774D4",
"<. c #DC7ADC",
"1. c #DB49F8",
"2. c #DA56F6",
"3. c #E647F6",
"4. c #E857FA",
"5. c #DD7AEB",
"6. c #CF61F7",
"7. c #DA6DF1",
"8. c #DB71F2",
"9. c #E679ED",
"0. c #E56CF3",
"q. c #EA7CF4",
"w. c #F377FB",
"e. c #F37BFB",
"r. c #F775F6",
"t. c #78858F",
"y. c #7F8AA1",
"u. c #8A8E9C",
"i. c #808697",
"p. c #8A97A4",
"a. c #959AA9",
"s. c #99A4A1",
"d. c #A0A8B4",
"f. c #ABB6B9",
"g. c #B2B6BF",
"h. c #B482DA",
"j. c #B7BCC3",
"k. c #D4ADDA",
"l. c #CE92EB",
"z. c #C789E8",
"x. c #E384E7",
"c. c #F286EE",
"v. c #EB99EE",
"b. c #EF8CF2",
"n. c #F385F5",
"m. c #F984F7",
"M. c #F48BF6",
"N. c #F88BF1",
"B. c #F383FA",
"V. c #F58BF8",
"C. c #FA8DFA",
"Z. c #F987FD",
"A. c #E09FF8",
"S. c #F697F7",
"D. c #FD93F6",
"F. c #FB9BFC",
"G. c #F896FA",
"H. c #D9A6EF",
"J. c #CEAEF5",
"K. c #D3A7F5",
"L. c #EAA8F4",
"P. c #F8A2F7",
"I. c #F5B4F4",
"U. c #F6B9F8",
"Y. c #BAC0C7",
"T. c #C4C9D2",
"R. c #CED1D6",
"E. c #D9D6DD",
"W. c #ECC4F5",
"Q. c #F6C6F5",
"!. c #EBDCF8",
"~. c #E9EAEB",
"^. c #F1EEF4",
"/. c #F4ECF9",
"(. c #FBE9FA",
"). c #EFF2F9",
"_. c #FAFBF6",
"`. c #F7F1F9",
"'. c #FAF4FB",
"]. c #FBFBFA",
"[. c #F7F8F6",
/* pixels */
"                                                          ",
"                                                          ",
"                                                          ",
"                      :                                   ",
"                    C U C       k n m                     ",
"                  * >.F.@.#     f ^ ^ n                   ",
"                  ; $.C.x.+.0 < x K ^ n                   ",
"                  1 $.G.q.3. . .| K K J                   ",
"                r W 9.N.n.w.n.r.1.o._ ! 4                 ",
"                8 X.e.V.n.n.v.S.w.1.4.} 4                 ",
"                p 5.M.n.M.I.(.'.`./._.K.~                 ",
"              > I B.M.n.U.^.j.a.R.].].~.F                 ",
"              > Y C.B.F.E.t.2 Z i.g.T.i u D =             ",
"              > Y Z.Z.P.g.O u j.Z y d $ u.a o             ",
"              > T M.B.P.j.. + + o i Z o & + +             ",
"              , Y m.M.S.k.s # . 2 d.g.w X 3 @             ",
"                b x.N.e.L.~.f.p.T.[.].E.s.                ",
"                e :.B.n.S.U.W.'.].`.).`.J.p               ",
"                  7 >.C.c.c.0.2.2.&.' { z                 ",
"                  # #.C.N.c.r.9.L.H.%.B                   ",
"                  * >.D.7.` L.^._.].-.j                   ",
"                  ; >.G.7.( A.[.].[.!.S                   ",
"                  ; #.V.n.8.=.^.[.[.].p.                  ",
"                  - H n.D.9.*.^.].[.].u.                  ",
"                  - G 9.5.6.;./.]._.`.A                   ",
"                  ; R ] ) ] 6.Q.Q.U.*.N                   ",
"                  q ,.4.3.2.Q E } [ K / g                 ",
"                e >.m.C.5.V r t l M K K J 5               ",
"                  h.z.l.O.8       9 L P L v               ",
"                                                          ",
"                                                          ",
"                                                          "
};
