/* XPM */
static char *player_left1704881534[] = {
/* columns rows colors chars-per-pixel */
"32 32 219 2 ",
"   c None",
".  c #1E3F0F",
"X  c #39270A",
"o  c #2A251D",
"O  c #3A271B",
"+  c #29381E",
"@  c #343619",
"#  c #3A331C",
"$  c #1F2F22",
"%  c #1E3B24",
"&  c #2B2B24",
"*  c #272829",
"=  c #352B26",
"-  c #33252A",
";  c #293D24",
":  c #253828",
">  c #343422",
",  c #343828",
"<  c #283931",
"1  c #30343B",
"2  c #482A17",
"3  c #582D1A",
"4  c #4D311F",
"5  c #55321E",
"6  c #543E1E",
"7  c #65271D",
"8  c #412A24",
"9  c #4A3B28",
"0  c #563825",
"q  c #54332C",
"w  c #5D3D2B",
"e  c #40243C",
"r  c #51273C",
"t  c #443634",
"y  c #523A30",
"u  c #6C2826",
"i  c #65382B",
"p  c #653B2D",
"a  c #70392B",
"s  c #683836",
"d  c #743E37",
"f  c #264315",
"g  c #2C471A",
"h  c #374919",
"j  c #294222",
"k  c #3B4522",
"l  c #354C22",
"z  c #39572B",
"x  c #324537",
"c  c #3B5438",
"v  c #3E672F",
"b  c #54431F",
"n  c #73421F",
"m  c #494629",
"M  c #55442B",
"N  c #594629",
"B  c #5B4C2B",
"V  c #46582B",
"C  c #52512A",
"Z  c #494839",
"A  c #5A4432",
"S  c #564834",
"D  c #425735",
"F  c #435C3D",
"G  c #57523E",
"H  c #64452D",
"J  c #76432E",
"K  c #615E26",
"L  c #684734",
"P  c #6B4A34",
"I  c #784F3F",
"U  c #6A5A38",
"Y  c #72563A",
"T  c #79513D",
"R  c #476725",
"E  c #52622F",
"W  c #5B7529",
"Q  c #436034",
"!  c #47663A",
"~  c #516932",
"^  c #4D7539",
"/  c #547A32",
"(  c #567739",
")  c #69673B",
"_  c #756232",
"`  c #637738",
"'  c #402D46",
"]  c #513C4C",
"[  c #773C47",
"{  c #385044",
"}  c #444A43",
"|  c #524A43",
" . c #584E45",
".. c #57494E",
"X. c #405842",
"o. c #595548",
"O. c #544953",
"+. c #455857",
"@. c #664948",
"#. c #685849",
"$. c #785B44",
"%. c #724B52",
"&. c #665556",
"*. c #755458",
"=. c #477147",
"-. c #577949",
";. c #556C54",
":. c #597D56",
">. c #6E614B",
",. c #7F724D",
"<. c #706550",
"1. c #766458",
"2. c #73745E",
"3. c #757859",
"4. c #725065",
"5. c #6C4970",
"6. c #737567",
"7. c #787569",
"8. c #7C6E72",
"9. c #8E3D31",
"0. c #894B2E",
"q. c #805E3E",
"w. c #AB573B",
"e. c #807826",
"r. c #96613F",
"t. c #A36330",
"y. c #AC7F31",
"u. c #CC7B39",
"i. c #835344",
"p. c #87584A",
"a. c #865150",
"s. c #84664A",
"d. c #8F6C55",
"f. c #936953",
"g. c #AC6D4E",
"h. c #B36B44",
"j. c #AE7C4D",
"k. c #915B6C",
"l. c #AF5F73",
"z. c #B15D78",
"x. c #896777",
"c. c #907D71",
"v. c #B36175",
"b. c #C47E48",
"n. c #5E942C",
"m. c #65962D",
"M. c #7D912D",
"N. c #6A8C31",
"B. c #649332",
"V. c #6F983A",
"C. c #749536",
"Z. c #7AAB3B",
"A. c #578752",
"S. c #718342",
"D. c #76994E",
"F. c #658552",
"G. c #738955",
"H. c #76955A",
"J. c #7CAB47",
"K. c #79A958",
"L. c #58936F",
"P. c #789867",
"I. c #629D77",
"U. c #72B071",
"Y. c #73B87B",
"T. c #86902E",
"R. c #858139",
"E. c #829130",
"W. c #A78C3A",
"Q. c #B88332",
"!. c #86B83A",
"~. c #809D55",
"^. c #B08642",
"/. c #84AF46",
"(. c #86AB54",
"). c #8CB556",
"_. c #8A9E6B",
"`. c #99897A",
"'. c #9D917E",
"]. c #A78866",
"[. c #AB8A73",
"{. c #8CA061",
"}. c #9DBE67",
"|. c #D28344",
" X c #C48A66",
".X c #C89A79",
"XX c #87C543",
"oX c #81C57B",
"OX c #A9CB7D",
"+X c #995882",
"@X c #A65983",
"#X c #9A688A",
"$X c #936A97",
"%X c #A86E8A",
"&X c #A16991",
"*X c #AE69A8",
"=X c #D56C9D",
"-X c #C86DA8",
";X c #D16FAB",
":X c #C97CAA",
">X c #73B780",
",X c #79C787",
"<X c #9E8E8F",
"1X c #AB9C87",
"2X c #A7BF88",
"3X c #BCA9B3",
"4X c #B8B0B1",
"5X c #DDA686",
"6X c #B6D383",
"7X c #B4D18F",
"8X c #B7CE98",
"9X c #D3C3BB",
"0X c #D4D6BA",
"qX c #D8E6BB",
"wX c #CCCEC9",
"eX c #D9CBC3",
"rX c #D7D4C5",
"tX c #DACFD1",
"yX c #E3D7D0",
/* pixels */
"                                                                ",
"                                                                ",
"                              ! f g f g                         ",
"                            z Q R W ` ` m @                     ",
"                        =.! C _ R.C.).(.W h j %                 ",
"                      +.{ # j.|.y.E.Z.XXXXJ.F <                 ",
"                    ] 5.$Xs h.u.Q.e.M.!.!./.-.> @ h f           ",
"                  > 4.*X-Xz.9.t.^.W.W.T.C.V.E @ ) S.V           ",
"                  m *.:X;X=Xv.i.n 0.b.^.K ~ ` W N./.D.V         ",
"                  S | x.@X-X:Xk.d 9.w.r.$.o.( N.m.Z.).~         ",
"                U A 9 t r +X&X#X%Xl.7 J [.<.z / B.n.J.^ .       ",
"              U 6 P 1.*.] e ] ' 4.#Xs .X5Xi.o ; / B.V.^ g       ",
"            U N Y w q x.3X..4X8.4.&Xs  X Xa - * l / R Q         ",
"            N T w 8 &.3XtXo.0Xc.%.%Xi g.g.P - = F z v           ",
"          C 0 p.3 A #.<XyX'.1X[.p.[ p.f.0.%...& :.-.            ",
"        U M H T H $.>.`.yX`.d.].f.d f.Y 0 @.O.<                 ",
"        B M $.5 s.,.>.1XeXA Y q.q.s.) V + * 1 c                 ",
"        M N p.5 $.N O c.9Xy 2 2 X X l U.=.: +.                  ",
"        A w i.2 9 1.#.7.eX1.#.#.m k A.Y.Y.=.{                   ",
"        M p p.2 # 1.1.6.rX7.1.Z F :.>X,XoX^ !                   ",
"        9 p i.2 m &.| 7.rXo.| Z ;.I.,XU.K.D.-.!                 ",
"        9 p p.4 >.&., 2.0X2.Z ;.L.L.Y.U.(.}.F.l                 ",
"          p I w >.2.G 3.qX8X{.{.~.K.K.OX7XP.Q z                 ",
"          P w $.y #. .7.0X_.2X7X6X6XOXH.G.F z -.                ",
"          w 5 $.q %. .7.wXo.2.P.H.G.G.k , : X.F.                ",
"            H L P @.t 6.wX} } c D V m = & * x F                 ",
"              H P B H d.c.t @.s 7 3 q - - * $ j                 ",
"                b B Y L O 8 *.a.u a q - & & ; z                 ",
"                  m # > = & = = = O O & , ; c                   ",
"                    D   c : : : : : + j !                       ",
"                                  ;.;.-.                        ",
"                                                                "
};
