/* XPM */
static char *Screen_Shot_2024_01_10_at_1_39_19_PM1704891039[] = {
/* columns rows colors chars-per-pixel */
"32 32 190 2 ",
"   c None",
".  c #262C1D",
"X  c #342D1B",
"o  c #2C3E1C",
"O  c #323D1F",
"+  c #373818",
"@  c #252424",
"#  c #282323",
"$  c #2B2C27",
"%  c #262429",
"&  c #2C2229",
"*  c #282B28",
"=  c #3B2D23",
"-  c #352828",
";  c #273324",
":  c #2C3427",
">  c #2C342A",
",  c #2C3D2D",
"<  c #2A3925",
"1  c #333624",
"2  c #3D3121",
"3  c #333923",
"4  c #3C3C22",
"5  c #3E3C2E",
"6  c #353829",
"7  c #302C39",
"8  c #2D3B34",
"9  c #343B32",
"0  c #37373A",
"q  c #46381D",
"w  c #4F2427",
"e  c #433B25",
"r  c #4D3D23",
"t  c #47332B",
"y  c #5B3A27",
"u  c #482B39",
"i  c #463835",
"p  c #583F3D",
"a  c #653E29",
"s  c #2C401B",
"d  c #33441B",
"f  c #38481F",
"g  c #39511B",
"h  c #2D4429",
"j  c #2E4323",
"k  c #3A462D",
"l  c #364527",
"z  c #3E582D",
"x  c #344435",
"c  c #33413C",
"v  c #354E38",
"b  c #3C533B",
"n  c #325331",
"m  c #4B561D",
"M  c #59491D",
"N  c #664D1F",
"B  c #46671F",
"V  c #5F4B2B",
"C  c #415721",
"Z  c #454B36",
"A  c #534D39",
"S  c #574737",
"D  c #4B5333",
"F  c #495C3D",
"G  c #455736",
"H  c #46492B",
"J  c #694D2E",
"K  c #6D462E",
"L  c #734A27",
"P  c #705223",
"I  c #71502E",
"U  c #6B4D32",
"Y  c #674834",
"T  c #7B5332",
"R  c #775735",
"E  c #4B6526",
"W  c #546526",
"Q  c #55712B",
"!  c #5A792A",
"~  c #42633C",
"^  c #607D2F",
"/  c #627339",
"(  c #483042",
")  c #5E354B",
"_  c #403F52",
"`  c #3B444B",
"'  c #3B484C",
"]  c #3D5547",
"[  c #3F624B",
"{  c #464E48",
"}  c #47574A",
"|  c #465C50",
" . c #76454E",
".. c #684C58",
"X. c #456545",
"o. c #496B56",
"O. c #557D56",
"+. c #7F654C",
"@. c #61784B",
"#. c #4C5872",
"$. c #4D4F68",
"%. c #6D4B66",
"&. c #744362",
"*. c #7A4264",
"=. c #605A79",
"-. c #566462",
";. c #667362",
":. c #87552B",
">. c #895832",
",. c #915730",
"<. c #874D28",
"1. c #836F2B",
"2. c #8D6039",
"3. c #956135",
"4. c #AA6938",
"5. c #835244",
"6. c #936241",
"7. c #9D7A5F",
"8. c #98517B",
"9. c #854E6E",
"0. c #887678",
"q. c #A26065",
"w. c #A97A61",
"e. c #5E842D",
"r. c #5E8231",
"t. c #62822E",
"y. c #648F2E",
"u. c #688D2E",
"i. c #63912E",
"p. c #628331",
"a. c #678C36",
"s. c #6B9531",
"d. c #779A3A",
"f. c #73A136",
"g. c #7BA43A",
"h. c #7EAA3B",
"j. c #77A639",
"k. c #5C8C5D",
"l. c #708654",
"z. c #67945B",
"x. c #558C6B",
"c. c #578866",
"v. c #569365",
"b. c #5B9465",
"n. c #58996B",
"m. c #559270",
"M. c #629C72",
"N. c #799A66",
"B. c #5EA068",
"V. c #5BA173",
"C. c #61A96D",
"Z. c #7CA561",
"A. c #61A773",
"S. c #61AC78",
"D. c #6DBB75",
"F. c #6EC477",
"G. c #72C97C",
"H. c #79D87E",
"J. c #75D17E",
"K. c #87AD3E",
"L. c #83B33C",
"P. c #8CB53E",
"I. c #848C5A",
"U. c #8C9D5B",
"Y. c #80AD40",
"T. c #86B340",
"R. c #89B940",
"E. c #97BC4D",
"W. c #8CB551",
"Q. c #A1BB5E",
"!. c #9C8060",
"~. c #AE8160",
"^. c #8FAE69",
"/. c #9AAC65",
"(. c #9BB268",
"). c #A2B566",
"_. c #B1C164",
"`. c #B0C56B",
"'. c #ABC871",
"]. c #5A5B84",
"[. c #6A6786",
"{. c #A95A92",
"}. c #A65487",
"|. c #BC629D",
" X c #B66494",
".X c #D96BB8",
"XX c #77D383",
"oX c #8D868A",
"OX c #9A949C",
"+X c #AAC387",
/* pixels */
"                                                                ",
"                                                                ",
"                                                                ",
"                                  b b                           ",
"                              z s o s h ~                       ",
"                          j s m u.u.u.^ f j                     ",
"                  Z H F h E y.s.R.R.L.h.g.p.l G D G             ",
"                  4 !.A . E f.K.L.g.e.r.y.e.f : 7.A             ",
"                  2 ~.S X W d.g.i.! O g t.^ Q 1 w.S             ",
"                  X 6.y P N W ! B t.Q ! t.m 1.q ,.r k           ",
"                  X >.,.L <.P C t.h.L.W.+X/ M X >.q k           ",
"                  X >.4.y y <.L Q f.g.E.'.a.+ K 3.r k           ",
"                  H J Y  .u y a O E u.P.Y.p.4 q.5.0.;.          ",
"                    F - 8.8.*.) . o u.h.K.W ..9.}.OX-.          ",
"                      0 &.|..X{.( O y.s.d.l %.u oX[._ {         ",
"                      A - &.{.|.}.p Q s.d.3 % 4 l =.$.}         ",
"                    Z J t 7 9 .. X9.4 r.a.9 $ U R i 7 '         ",
"                  e Y >.e X.M.c.0 0 h h n o.9 I T i 7 '         ",
"                  $ Y R e o.m.A.F.F.F.D.D.c.x J i [.$.-.        ",
"                  . 2 = } x.x.C.J.XXXXH.G.n.O.5 ].#.o.          ",
"                  3 6.Z I.Z.k.b.V.S.XXG.B.z.(.i ` |             ",
"                  D S $ @.Q._.^.v.n.A.v.X.(.U.9 c               ",
"                    k x b l.^.(._._./.b o.N.F *                 ",
"                      v ; c } O.).).U.. } ] t -                 ",
"                      : # # @ 8 X.[ b @ @ & w -                 ",
"                      h * # # @ % @ % % # # & {                 ",
"                        h > $ @ @ % & % $ Z c                   ",
"                              ; * ; < 9 {                       ",
"                                                                ",
"                                                                ",
"                                                                ",
"                                                                "
};
